<svg version="1.1" id="Layer_1" xmlns="http://www.w3.org/2000/svg" xmlns:xlink="http://www.w3.org/1999/xlink" x="0px" y="0px"
	 width="100%" viewBox="0 0 1200 1640" enable-background="new 0 0 1200 1640" xml:space="preserve">
<path fill="#FFFFFF" opacity="1.000000" stroke="none" 
	d="
M578.000000,1641.000000 
	C385.333374,1641.000000 193.166733,1641.000000 1.000051,1641.000000 
	C1.000000,1367.666748 1.000000,1094.333496 1.000000,821.000244 
	C1.000000,547.666931 1.000000,274.333679 1.000000,1.000298 
	C400.999786,1.000198 800.999573,1.000198 1200.999512,1.000099 
	C1200.999756,547.666382 1200.999756,1094.332764 1200.999878,1640.999512 
	C993.500000,1641.000000 786.000000,1641.000000 578.000000,1641.000000 
M399.160431,1025.093750 
	C398.963440,1023.109253 398.861969,1021.109741 398.554382,1019.142578 
	C396.018127,1002.920044 396.035034,986.697205 398.544647,970.481384 
	C399.746979,962.712463 401.079437,954.963745 402.532532,946.111877 
	C400.914001,947.818848 399.845367,948.922119 398.802551,950.049255 
	C381.981232,968.231934 365.606873,986.853577 348.254211,1004.514099 
	C309.331421,1044.127075 268.217102,1081.323975 224.234222,1115.333984 
	C197.608307,1135.922607 170.163132,1155.290894 141.414032,1172.740723 
	C115.495209,1188.472778 88.722397,1202.681641 59.885387,1212.416382 
	C51.175850,1215.356323 42.055820,1217.421143 32.957359,1218.726807 
	C28.278109,1219.398315 26.896982,1220.424438 26.902006,1225.162354 
	C27.038696,1354.149170 27.029430,1483.135986 27.057594,1612.122925 
	C27.057911,1613.569702 27.228922,1615.016479 27.327415,1616.576660 
	C401.997589,1616.576660 776.320862,1616.576660 1150.611938,1616.576660 
	C1150.611938,1268.656494 1150.611938,921.163147 1150.611938,572.553711 
	C1142.378540,584.648132 1134.961304,595.908569 1127.177246,606.909302 
	C1103.916870,639.781433 1080.963745,672.885254 1057.035645,705.266785 
	C1033.973877,736.475769 1010.367920,767.316589 986.049438,797.553772 
	C958.685364,831.577942 931.056335,865.456421 902.062866,898.083435 
	C873.922974,929.749939 844.294067,960.129028 814.617004,990.384949 
	C777.698181,1028.023804 738.321777,1062.849854 692.770691,1089.983154 
	C674.212830,1101.037476 654.915894,1110.643188 634.234619,1117.156738 
	C624.834778,1120.117188 615.405396,1123.039185 605.857178,1125.456665 
	C597.215576,1127.644653 588.460999,1129.639160 579.634888,1130.781006 
	C568.942444,1132.164429 558.115662,1133.296875 547.359558,1133.196045 
	C534.634216,1133.076904 521.618286,1132.913696 509.287750,1130.214111 
	C496.249390,1127.359497 483.416382,1122.459839 471.296051,1116.750244 
	C446.216125,1104.935669 426.637665,1086.724976 412.960083,1062.374390 
	C406.519928,1050.908691 402.627502,1038.538574 399.160431,1025.093750 
M122.439369,320.913147 
	C115.182884,324.968414 107.667747,328.625458 100.711449,333.142975 
	C51.581631,365.048767 25.713278,409.407684 25.884689,468.983826 
	C26.477282,674.944946 26.467798,880.907776 26.691710,1086.869995 
	C26.724863,1117.365356 26.776659,1147.860840 26.836296,1178.356201 
	C26.839666,1180.080322 26.993273,1181.804077 27.107367,1184.154541 
	C33.373070,1180.597656 38.993343,1177.414185 44.607235,1174.219360 
	C108.680832,1137.755737 168.397446,1095.325684 221.834229,1044.364990 
	C258.189453,1009.694397 291.167328,971.982910 321.808594,932.206726 
	C356.176941,887.592468 387.675262,840.997314 416.933350,792.909607 
	C434.050018,764.777161 451.792877,736.886169 466.743958,707.605042 
	C497.564270,647.244385 519.767517,583.375732 540.267883,518.857422 
	C561.021362,453.542725 582.849976,388.569366 604.266479,323.465881 
	C606.936768,315.348389 609.967102,307.349335 613.026855,298.743591 
	C610.914185,298.743591 609.600403,298.748901 608.286682,298.742828 
	C574.801697,298.587952 541.316772,298.325073 507.831604,298.296295 
	C411.679871,298.213623 315.527985,298.167511 219.376358,298.288696 
	C209.589813,298.301025 199.726196,298.977234 190.034744,300.325714 
	C166.712708,303.570801 144.386017,310.400208 122.439369,320.913147 
M1071.723511,577.241943 
	C1080.322388,565.276733 1088.969604,553.345886 1097.509888,541.339050 
	C1114.687988,517.188416 1131.848633,493.024994 1148.871216,468.764984 
	C1150.175415,466.906158 1150.935425,464.246033 1150.940063,461.956299 
	C1151.046753,409.299896 1151.015869,356.643158 1150.995728,303.986511 
	C1150.995117,302.403137 1150.836914,300.819855 1150.739258,298.994598 
	C1148.490601,298.994598 1146.837891,298.994110 1145.185303,298.994659 
	C1019.876465,299.036713 894.567688,299.079071 769.258850,299.119690 
	C767.092651,299.120392 764.839478,298.730499 762.788635,299.211945 
	C761.237183,299.576141 759.122070,300.752197 758.662903,302.060242 
	C753.918762,315.573914 749.395264,329.166595 744.943542,342.780853 
	C741.315491,353.876129 737.898621,365.040222 734.333252,376.156219 
	C730.565491,387.902863 726.706238,399.620209 722.935913,411.366028 
	C719.216614,422.953156 715.544617,434.555542 711.877441,446.159332 
	C708.208313,457.769348 704.564209,469.387238 700.921448,481.005554 
	C697.329102,492.463165 693.763672,503.929169 690.165588,515.384949 
	C686.421814,527.304565 682.647644,539.214600 678.896729,551.132019 
	C675.291260,562.587158 671.706238,574.048645 668.098328,585.503052 
	C664.390564,597.274292 660.635498,609.030701 656.957092,620.811157 
	C653.280273,632.586609 649.692078,644.389832 646.029175,656.169678 
	C642.365967,667.950073 638.636230,679.709778 634.976807,691.491272 
	C631.366577,703.114258 627.850952,714.766602 624.214844,726.381409 
	C620.530640,738.149902 616.746704,749.887207 613.011902,761.639832 
	C608.580261,775.585022 604.164246,789.535156 599.723328,803.477356 
	C595.527405,816.650452 591.046448,829.739685 587.172180,843.006409 
	C583.296814,856.276978 579.839417,869.677673 576.527039,883.102295 
	C573.167908,896.716003 569.650513,910.330933 567.239685,924.126587 
	C564.990356,936.997986 564.150146,950.113037 562.606079,963.110840 
	C560.404114,981.647705 561.550171,999.945374 567.018494,1017.809753 
	C570.445374,1029.005005 576.472778,1038.681519 587.003235,1044.547729 
	C601.220703,1052.467896 616.339233,1050.793457 630.969360,1046.531738 
	C646.057861,1042.136597 659.870911,1034.535767 673.119995,1026.050903 
	C700.197632,1008.709656 724.806091,988.181519 748.066589,966.157898 
	C801.658569,915.415466 853.075684,862.541138 899.358765,804.953430 
	C927.195679,770.317444 954.516296,735.245605 981.292542,699.783447 
	C1011.737488,659.462463 1041.316895,618.487976 1071.723511,577.241943 
M759.297363,27.792700 
	C754.708191,28.514278 750.107178,29.168200 745.531738,29.968338 
	C713.843628,35.509933 682.267151,41.740215 652.149658,53.290722 
	C640.966614,57.579575 630.481079,63.914463 620.148193,70.102470 
	C614.435486,73.523636 610.990784,79.381180 611.041870,86.443161 
	C611.299683,122.094009 611.657532,157.744141 611.987000,193.394455 
	C612.028259,197.862793 614.645203,200.527435 618.580322,201.740189 
	C621.236633,202.558823 624.158386,203.106934 626.907471,202.931305 
	C638.845886,202.168686 650.782227,201.276230 662.686646,200.100021 
	C691.301636,197.272720 719.520996,192.214172 747.095947,183.978180 
	C760.946472,179.841339 774.604126,175.099228 786.498474,166.476212 
	C792.981628,161.776138 796.234558,155.839920 796.131348,147.420197 
	C795.773804,118.268311 795.966858,89.109673 795.948975,59.953598 
	C795.944458,52.622932 796.058167,45.289486 795.892761,37.962391 
	C795.731262,30.809425 793.479797,27.311047 786.464417,26.834669 
	C777.761169,26.243675 768.946838,27.288666 759.297363,27.792700 
z"/>
<path fill="#1973DC" opacity="1.000000" stroke="none" 
	d="
M399.215302,1025.517822 
	C402.627502,1038.538574 406.519928,1050.908691 412.960083,1062.374390 
	C426.637665,1086.724976 446.216125,1104.935669 471.296051,1116.750244 
	C483.416382,1122.459839 496.249390,1127.359497 509.287750,1130.214111 
	C521.618286,1132.913696 534.634216,1133.076904 547.359558,1133.196045 
	C558.115662,1133.296875 568.942444,1132.164429 579.634888,1130.781006 
	C588.460999,1129.639160 597.215576,1127.644653 605.857178,1125.456665 
	C615.405396,1123.039185 624.834778,1120.117188 634.234619,1117.156738 
	C654.915894,1110.643188 674.212830,1101.037476 692.770691,1089.983154 
	C738.321777,1062.849854 777.698181,1028.023804 814.617004,990.384949 
	C844.294067,960.129028 873.922974,929.749939 902.062866,898.083435 
	C931.056335,865.456421 958.685364,831.577942 986.049438,797.553772 
	C1010.367920,767.316589 1033.973877,736.475769 1057.035645,705.266785 
	C1080.963745,672.885254 1103.916870,639.781433 1127.177246,606.909302 
	C1134.961304,595.908569 1142.378540,584.648132 1150.611938,572.553711 
	C1150.611938,921.163147 1150.611938,1268.656494 1150.611938,1616.576660 
	C776.320862,1616.576660 401.997589,1616.576660 27.327415,1616.576660 
	C27.228922,1615.016479 27.057911,1613.569702 27.057594,1612.122925 
	C27.029430,1483.135986 27.038696,1354.149170 26.902006,1225.162354 
	C26.896982,1220.424438 28.278109,1219.398315 32.957359,1218.726807 
	C42.055820,1217.421143 51.175850,1215.356323 59.885387,1212.416382 
	C88.722397,1202.681641 115.495209,1188.472778 141.414032,1172.740723 
	C170.163132,1155.290894 197.608307,1135.922607 224.234222,1115.333984 
	C268.217102,1081.323975 309.331421,1044.127075 348.254211,1004.514099 
	C365.606873,986.853577 381.981232,968.231934 398.802551,950.049255 
	C399.845367,948.922119 400.914001,947.818848 402.532532,946.111877 
	C401.079437,954.963745 399.746979,962.712463 398.544647,970.481384 
	C396.035034,986.697205 396.018127,1002.920044 398.554382,1019.142578 
	C398.861969,1021.109741 398.963440,1023.109253 399.215302,1025.517822 
M493.666962,1299.084473 
	C467.834229,1309.456055 451.548798,1328.445190 443.278076,1354.741943 
	C439.130890,1367.928101 438.508423,1381.533325 438.472443,1395.163574 
	C438.356262,1439.153809 438.429535,1483.144775 438.429779,1527.135376 
	C438.429810,1528.931641 438.429749,1530.727905 438.429749,1532.747070 
	C461.002655,1532.747070 483.068115,1532.747070 505.636475,1532.747070 
	C505.636475,1530.880859 505.636505,1529.249146 505.636505,1527.617554 
	C505.636841,1484.460083 505.638550,1441.302490 505.631714,1398.145020 
	C505.631500,1396.647461 505.363129,1395.129150 505.531433,1393.656006 
	C506.409210,1385.972656 506.297699,1377.961914 508.557129,1370.695190 
	C513.360291,1355.247681 524.248047,1348.090454 539.487427,1348.220703 
	C557.156555,1348.371582 568.182922,1356.564209 571.786987,1372.981934 
	C574.264648,1384.268433 575.532043,1396.021484 575.664734,1407.585205 
	C576.121704,1447.404907 575.842285,1487.232910 575.843384,1527.057739 
	C575.843445,1528.966797 575.843384,1530.875854 575.843384,1532.737183 
	C598.550659,1532.737183 620.478882,1532.737183 642.877808,1532.737183 
	C642.877808,1531.190552 642.878113,1529.901001 642.877808,1528.611572 
	C642.868591,1484.787598 643.140930,1440.960571 642.670715,1397.141602 
	C642.537598,1384.731812 641.140869,1372.167847 638.752136,1359.982666 
	C632.723755,1329.231079 615.686340,1306.908081 585.085876,1297.442871 
	C554.918701,1288.111694 524.479797,1288.280396 493.666962,1299.084473 
M295.177460,1195.647827 
	C278.042450,1204.427368 265.983185,1217.980591 257.982727,1235.312256 
	C250.344116,1251.860107 248.430176,1269.476807 248.429169,1287.430786 
	C248.424683,1367.406372 248.428604,1447.382080 248.429489,1527.357666 
	C248.429520,1529.141846 248.429504,1530.925903 248.429504,1532.659180 
	C271.124756,1532.659180 293.192383,1532.659180 315.651550,1532.659180 
	C315.651550,1472.399170 315.651550,1412.478271 315.651550,1352.037476 
	C343.276764,1352.037476 370.512573,1352.037476 397.938110,1352.037476 
	C397.938110,1333.141235 397.938110,1314.767822 397.938110,1295.877686 
	C370.400177,1295.877686 343.162750,1295.877686 316.140198,1295.877686 
	C316.140198,1288.381104 315.501648,1281.332886 316.264160,1274.439819 
	C318.270142,1256.305786 327.423798,1245.621216 344.157745,1242.516602 
	C351.578064,1241.140015 359.479919,1240.847778 366.969147,1241.723145 
	C377.052246,1242.901978 386.947845,1245.684814 397.290710,1247.856079 
	C401.426788,1230.778442 405.712616,1213.082397 410.038727,1195.220093 
	C394.386597,1189.300537 378.776672,1185.399292 362.568207,1184.398071 
	C339.531799,1182.974976 316.985352,1185.002441 295.177460,1195.647827 
M768.199951,1418.500000 
	C768.199951,1396.414551 768.199951,1374.329102 768.199951,1351.772705 
	C795.493042,1351.772705 822.063293,1351.772705 848.681274,1351.772705 
	C848.681274,1333.034546 848.681274,1314.776245 848.681274,1295.845459 
	C821.778320,1295.845459 795.100586,1295.845459 768.028442,1295.845459 
	C768.028442,1272.240356 768.028442,1249.306641 768.028442,1226.039429 
	C745.495300,1229.680542 723.413147,1233.248901 701.160156,1236.844727 
	C701.160156,1239.296753 701.160156,1241.117188 701.160156,1242.937500 
	C701.160156,1305.911133 701.004883,1368.885620 701.289856,1431.857910 
	C701.347656,1444.629883 702.379822,1457.490723 704.152893,1470.143799 
	C708.975342,1504.557129 729.627808,1527.243774 762.733826,1534.715576 
	C783.782166,1539.465820 805.113342,1539.368896 826.234436,1535.299683 
	C837.053406,1533.215210 847.565430,1529.537598 858.423523,1526.522461 
	C855.111023,1508.189331 852.014282,1491.050415 848.865234,1473.621582 
	C846.547974,1474.285645 844.651489,1474.801758 842.771484,1475.372192 
	C829.773315,1479.315430 816.494446,1481.274292 802.904907,1480.945679 
	C783.690674,1480.481201 773.271484,1472.257935 770.259216,1453.317993 
	C768.493591,1442.216919 768.816528,1430.783691 768.199951,1418.500000 
M903.427429,1510.500000 
	C903.427429,1517.923706 903.427429,1525.347412 903.427429,1532.805420 
	C926.141418,1532.805420 948.097168,1532.805420 970.638489,1532.805420 
	C970.638489,1530.838013 970.638489,1529.048340 970.638489,1527.258667 
	C970.638611,1460.603027 970.645020,1393.947510 970.624023,1327.291870 
	C970.622742,1323.129395 970.534912,1318.958496 970.267029,1314.805908 
	C969.517456,1303.187134 965.117798,1298.097168 953.546692,1297.106079 
	C942.950806,1296.198730 932.267639,1296.265259 921.620178,1296.023071 
	C915.692932,1295.888184 909.760071,1295.998779 903.427856,1295.998779 
	C903.427856,1367.581543 903.427856,1438.540771 903.427429,1510.500000 
M970.951965,1245.566650 
	C970.301331,1237.777832 969.869568,1229.963257 968.953003,1222.205933 
	C967.239136,1207.701294 960.086670,1199.091553 945.643555,1197.026123 
	C931.876831,1195.057373 917.827515,1195.062012 903.900452,1194.233765 
	C903.671692,1194.220093 903.416687,1194.647461 903.296387,1194.757202 
	C903.296387,1215.135254 903.296387,1235.398071 903.296387,1255.233398 
	C925.974121,1255.233398 948.349182,1255.233398 970.958435,1255.233398 
	C970.958435,1251.823730 970.958435,1249.178467 970.951965,1245.566650 
z"/>
<path fill="#8F9094" opacity="1.000000" stroke="none" 
	d="
M122.780090,320.750305 
	C144.386017,310.400208 166.712708,303.570801 190.034744,300.325714 
	C199.726196,298.977234 209.589813,298.301025 219.376358,298.288696 
	C315.527985,298.167511 411.679871,298.213623 507.831604,298.296295 
	C541.316772,298.325073 574.801697,298.587952 608.286682,298.742828 
	C609.600403,298.748901 610.914185,298.743591 613.026855,298.743591 
	C609.967102,307.349335 606.936768,315.348389 604.266479,323.465881 
	C582.849976,388.569366 561.021362,453.542725 540.267883,518.857422 
	C519.767517,583.375732 497.564270,647.244385 466.743958,707.605042 
	C451.792877,736.886169 434.050018,764.777161 416.933350,792.909607 
	C387.675262,840.997314 356.176941,887.592468 321.808594,932.206726 
	C291.167328,971.982910 258.189453,1009.694397 221.834229,1044.364990 
	C168.397446,1095.325684 108.680832,1137.755737 44.607235,1174.219360 
	C38.993343,1177.414185 33.373070,1180.597656 27.107367,1184.154541 
	C26.993273,1181.804077 26.839666,1180.080322 26.836296,1178.356201 
	C26.776659,1147.860840 26.724863,1117.365356 26.691710,1086.869995 
	C26.467798,880.907776 26.477282,674.944946 25.884689,468.983826 
	C25.713278,409.407684 51.581631,365.048767 100.711449,333.142975 
	C107.667747,328.625458 115.182884,324.968414 122.780090,320.750305 
z"/>
<path fill="#E0441C" opacity="1.000000" stroke="none" 
	d="
M1071.498047,577.519775 
	C1041.316895,618.487976 1011.737488,659.462463 981.292542,699.783447 
	C954.516296,735.245605 927.195679,770.317444 899.358765,804.953430 
	C853.075684,862.541138 801.658569,915.415466 748.066589,966.157898 
	C724.806091,988.181519 700.197632,1008.709656 673.119995,1026.050903 
	C659.870911,1034.535767 646.057861,1042.136597 630.969360,1046.531738 
	C616.339233,1050.793457 601.220703,1052.467896 587.003235,1044.547729 
	C576.472778,1038.681519 570.445374,1029.005005 567.018494,1017.809753 
	C561.550171,999.945374 560.404114,981.647705 562.606079,963.110840 
	C564.150146,950.113037 564.990356,936.997986 567.239685,924.126587 
	C569.650513,910.330933 573.167908,896.716003 576.527039,883.102295 
	C579.839417,869.677673 583.296814,856.276978 587.172180,843.006409 
	C591.046448,829.739685 595.527405,816.650452 599.723328,803.477356 
	C604.164246,789.535156 608.580261,775.585022 613.011902,761.639832 
	C616.746704,749.887207 620.530640,738.149902 624.214844,726.381409 
	C627.850952,714.766602 631.366577,703.114258 634.976807,691.491272 
	C638.636230,679.709778 642.365967,667.950073 646.029175,656.169678 
	C649.692078,644.389832 653.280273,632.586609 656.957092,620.811157 
	C660.635498,609.030701 664.390564,597.274292 668.098328,585.503052 
	C671.706238,574.048645 675.291260,562.587158 678.896729,551.132019 
	C682.647644,539.214600 686.421814,527.304565 690.165588,515.384949 
	C693.763672,503.929169 697.329102,492.463165 700.921448,481.005554 
	C704.564209,469.387238 708.208313,457.769348 711.877441,446.159332 
	C715.544617,434.555542 719.216614,422.953156 722.935913,411.366028 
	C726.706238,399.620209 730.565491,387.902863 734.333252,376.156219 
	C737.898621,365.040222 741.315491,353.876129 744.943542,342.780853 
	C749.395264,329.166595 753.918762,315.573914 758.662903,302.060242 
	C759.122070,300.752197 761.237183,299.576141 762.788635,299.211945 
	C764.839478,298.730499 767.092651,299.120392 769.258850,299.119690 
	C894.567688,299.079071 1019.876465,299.036713 1145.185303,298.994659 
	C1146.837891,298.994110 1148.490601,298.994598 1150.739258,298.994598 
	C1150.836914,300.819855 1150.995117,302.403137 1150.995728,303.986511 
	C1151.015869,356.643158 1151.046753,409.299896 1150.940063,461.956299 
	C1150.935425,464.246033 1150.175415,466.906158 1148.871216,468.764984 
	C1131.848633,493.024994 1114.687988,517.188416 1097.509888,541.339050 
	C1088.969604,553.345886 1080.322388,565.276733 1071.498047,577.519775 
z"/>
<path fill="#1873DC" opacity="1.000000" stroke="none" 
	d="
M759.738892,27.709846 
	C768.946838,27.288666 777.761169,26.243675 786.464417,26.834669 
	C793.479797,27.311047 795.731262,30.809425 795.892761,37.962391 
	C796.058167,45.289486 795.944458,52.622932 795.948975,59.953598 
	C795.966858,89.109673 795.773804,118.268311 796.131348,147.420197 
	C796.234558,155.839920 792.981628,161.776138 786.498474,166.476212 
	C774.604126,175.099228 760.946472,179.841339 747.095947,183.978180 
	C719.520996,192.214172 691.301636,197.272720 662.686646,200.100021 
	C650.782227,201.276230 638.845886,202.168686 626.907471,202.931305 
	C624.158386,203.106934 621.236633,202.558823 618.580322,201.740189 
	C614.645203,200.527435 612.028259,197.862793 611.987000,193.394455 
	C611.657532,157.744141 611.299683,122.094009 611.041870,86.443161 
	C610.990784,79.381180 614.435486,73.523636 620.148193,70.102470 
	C630.481079,63.914463 640.966614,57.579575 652.149658,53.290722 
	C682.267151,41.740215 713.843628,35.509933 745.531738,29.968338 
	C750.107178,29.168200 754.708191,28.514278 759.738892,27.709846 
z"/>
<path fill="#FEFEFF" opacity="1.000000" stroke="none" 
	d="
M494.043976,1298.990723 
	C524.479797,1288.280396 554.918701,1288.111694 585.085876,1297.442871 
	C615.686340,1306.908081 632.723755,1329.231079 638.752136,1359.982666 
	C641.140869,1372.167847 642.537598,1384.731812 642.670715,1397.141602 
	C643.140930,1440.960571 642.868591,1484.787598 642.877808,1528.611572 
	C642.878113,1529.901001 642.877808,1531.190552 642.877808,1532.737183 
	C620.478882,1532.737183 598.550659,1532.737183 575.843384,1532.737183 
	C575.843384,1530.875854 575.843445,1528.966797 575.843384,1527.057739 
	C575.842285,1487.232910 576.121704,1447.404907 575.664734,1407.585205 
	C575.532043,1396.021484 574.264648,1384.268433 571.786987,1372.981934 
	C568.182922,1356.564209 557.156555,1348.371582 539.487427,1348.220703 
	C524.248047,1348.090454 513.360291,1355.247681 508.557129,1370.695190 
	C506.297699,1377.961914 506.409210,1385.972656 505.531433,1393.656006 
	C505.363129,1395.129150 505.631500,1396.647461 505.631714,1398.145020 
	C505.638550,1441.302490 505.636841,1484.460083 505.636505,1527.617554 
	C505.636505,1529.249146 505.636475,1530.880859 505.636475,1532.747070 
	C483.068115,1532.747070 461.002655,1532.747070 438.429749,1532.747070 
	C438.429749,1530.727905 438.429810,1528.931641 438.429779,1527.135376 
	C438.429535,1483.144775 438.356262,1439.153809 438.472443,1395.163574 
	C438.508423,1381.533325 439.130890,1367.928101 443.278076,1354.741943 
	C451.548798,1328.445190 467.834229,1309.456055 494.043976,1298.990723 
z"/>
<path fill="#FEFEFF" opacity="1.000000" stroke="none" 
	d="
M295.495789,1195.451782 
	C316.985352,1185.002441 339.531799,1182.974976 362.568207,1184.398071 
	C378.776672,1185.399292 394.386597,1189.300537 410.038727,1195.220093 
	C405.712616,1213.082397 401.426788,1230.778442 397.290710,1247.856079 
	C386.947845,1245.684814 377.052246,1242.901978 366.969147,1241.723145 
	C359.479919,1240.847778 351.578064,1241.140015 344.157745,1242.516602 
	C327.423798,1245.621216 318.270142,1256.305786 316.264160,1274.439819 
	C315.501648,1281.332886 316.140198,1288.381104 316.140198,1295.877686 
	C343.162750,1295.877686 370.400177,1295.877686 397.938110,1295.877686 
	C397.938110,1314.767822 397.938110,1333.141235 397.938110,1352.037476 
	C370.512573,1352.037476 343.276764,1352.037476 315.651550,1352.037476 
	C315.651550,1412.478271 315.651550,1472.399170 315.651550,1532.659180 
	C293.192383,1532.659180 271.124756,1532.659180 248.429504,1532.659180 
	C248.429504,1530.925903 248.429520,1529.141846 248.429489,1527.357666 
	C248.428604,1447.382080 248.424683,1367.406372 248.429169,1287.430786 
	C248.430176,1269.476807 250.344116,1251.860107 257.982727,1235.312256 
	C265.983185,1217.980591 278.042450,1204.427368 295.495789,1195.451782 
z"/>
<path fill="#FEFEFF" opacity="1.000000" stroke="none" 
	d="
M768.199951,1419.000000 
	C768.816528,1430.783691 768.493591,1442.216919 770.259216,1453.317993 
	C773.271484,1472.257935 783.690674,1480.481201 802.904907,1480.945679 
	C816.494446,1481.274292 829.773315,1479.315430 842.771484,1475.372192 
	C844.651489,1474.801758 846.547974,1474.285645 848.865234,1473.621582 
	C852.014282,1491.050415 855.111023,1508.189331 858.423523,1526.522461 
	C847.565430,1529.537598 837.053406,1533.215210 826.234436,1535.299683 
	C805.113342,1539.368896 783.782166,1539.465820 762.733826,1534.715576 
	C729.627808,1527.243774 708.975342,1504.557129 704.152893,1470.143799 
	C702.379822,1457.490723 701.347656,1444.629883 701.289856,1431.857910 
	C701.004883,1368.885620 701.160156,1305.911133 701.160156,1242.937500 
	C701.160156,1241.117188 701.160156,1239.296753 701.160156,1236.844727 
	C723.413147,1233.248901 745.495300,1229.680542 768.028442,1226.039429 
	C768.028442,1249.306641 768.028442,1272.240356 768.028442,1295.845459 
	C795.100586,1295.845459 821.778320,1295.845459 848.681274,1295.845459 
	C848.681274,1314.776245 848.681274,1333.034546 848.681274,1351.772705 
	C822.063293,1351.772705 795.493042,1351.772705 768.199951,1351.772705 
	C768.199951,1374.329102 768.199951,1396.414551 768.199951,1419.000000 
z"/>
<path fill="#FEFEFF" opacity="1.000000" stroke="none" 
	d="
M903.427612,1510.000000 
	C903.427856,1438.540771 903.427856,1367.581543 903.427856,1295.998779 
	C909.760071,1295.998779 915.692932,1295.888184 921.620178,1296.023071 
	C932.267639,1296.265259 942.950806,1296.198730 953.546692,1297.106079 
	C965.117798,1298.097168 969.517456,1303.187134 970.267029,1314.805908 
	C970.534912,1318.958496 970.622742,1323.129395 970.624023,1327.291870 
	C970.645020,1393.947510 970.638611,1460.603027 970.638489,1527.258667 
	C970.638489,1529.048340 970.638489,1530.838013 970.638489,1532.805420 
	C948.097168,1532.805420 926.141418,1532.805420 903.427429,1532.805420 
	C903.427429,1525.347412 903.427429,1517.923706 903.427612,1510.000000 
z"/>
<path fill="#FEFEFF" opacity="1.000000" stroke="none" 
	d="
M970.955200,1246.049927 
	C970.958435,1249.178467 970.958435,1251.823730 970.958435,1255.233398 
	C948.349182,1255.233398 925.974121,1255.233398 903.296387,1255.233398 
	C903.296387,1235.398071 903.296387,1215.135254 903.296387,1194.757202 
	C903.416687,1194.647461 903.671692,1194.220093 903.900452,1194.233765 
	C917.827515,1195.062012 931.876831,1195.057373 945.643555,1197.026123 
	C960.086670,1199.091553 967.239136,1207.701294 968.953003,1222.205933 
	C969.869568,1229.963257 970.301331,1237.777832 970.955200,1246.049927 
z"/>
</svg>
