<svg xmlns="http://www.w3.org/2000/svg" width="1024" height="1024" viewBox="0 0 512 512">
  <path fill="#1873DC" opacity="1.000000" stroke="none" d="M415 66c1.2 42-13.4 71.5-43 101l-2.4 2.5c-7 7.3-14.6 13.4-22.6 19.5l-3.2 2.5c-35.5 28.1-83 55-129.8 53.5 3.5-2.3 7.1-4 10.9-5.7 27.9-12.8 27.9-12.8 34.1-40.3-2.5-6.4-6.7-13.8-13-17v-2l-4-2c-5.5-4.8-10.7-10-16-15l-3.6-3.4c-26-25-36-53-35.4-88.6 2.8 3.4 5.4 7 8 10.5 35.4 47.2 93 77.9 150 51.5a154.8 154.8 0 0 0 33-23l4.4-3.8c5.5-4.9 28.9-40.2 32.6-40.2Z"/>
  <path fill="#1873DC" opacity="1.000000" stroke="none" d="M300 84c3.3 4.5 7 10.2 7 16h16c0 4-5.2 6.6-8 9-3.5 4.7-3.3 4.9-1.7 10 1.7 5.8 1.7 5.8 1.7 9-4-2-4-2-8.5-5.2-6.2-3.8-8.2-2.2-13.6 1.8-4.9 3.4-4.9 3.4-6.9 3.4l1-4 1-5 1-3.4c0-5-1.8-6.2-5.4-9.5-5.6-5-5.6-5-5.6-6.1h3.7l4.7-.2h4.8c4.5-.3 4.5-.3 4.8-5.8l4-10ZM174 190c2 2 2 2 3 7 4.5.4 4.5.4 9 0 0 2 0 2-4 5h-2l1 8-3.1-1.7c-4.7-1.6-5.9-1-9.9 1.7l.9-3.2c.1-5.2-1.8-6-5.9-8.8v-1l4.4.4c6-.5 5.9-1.7 6.6-7.4ZM429 190c2 3 2 3 3 6 4.5.7 4.5.7 9 1-4 4-4 4-6 5 .2 2.7.6 5.3 1 8l-5-3c-4.1.9-4.1.9-8 3l.3-3.8c.1-4.6.1-4.6-4.3-8.2h3.9c5.4-1.3 5.3-2.7 6.1-8ZM336 210l1.6 2.5C349 229.2 371 238.4 390 243c-5.4 2.7-9.7 1.6-15.5.8l-3.3-.4A146 146 0 0 1 350 239c13.6 6.5 28.1 8.7 43 10-5 2.5-8.7 2.3-14.3 2.4H373c-12.6-.5-24.4-5.5-36-10.3-9.6-4-19.2-7.6-29.3-10.2-2.8-.9-2.8-.9-3.8-2.9l3-1.9c8-4.8 15.4-9.7 22.5-15.6 2.5-1.5 2.5-1.5 6.5-.5ZM276 235l-6.6 2.9-3.8 1.6c-3.6 1.5-3.6 1.5-7 2.6-3 .6-3 .6-2.6 2.9-15.5 6-31.6 6.3-48 6 0-1 0-1 2.5-1.5l3.4-.6c16.1-2.7 47.4-17.6 62.1-13.9Z"/>
  <path fill="#1873DC" opacity="1.000000" stroke="none" d="M466 235c5 10-24.4 36.4-31 43l-2.3 2.5C409.9 304.2 380.4 317 350 328c15.7-5.2 15.7-5.2 30.8-11.6 5.2-2.4 5.2-2.4 7.2-1.4a187.6 187.6 0 0 1-67 26 138 138 0 0 0 72-19l4-2.1c20.4-11 37.6-25.7 53-42.9l3-3c-6.1 15.3-19.3 28.7-31 40l-1 1a164.3 164.3 0 0 0 28-28l2.7-3.4A255 255 0 0 0 477 240c8.7 26-37.6 75.9-56 91l-2.7 2.2c-69.8 56-173 52.4-239.8-6a165 165 0 0 1-25.6-28A223 223 0 0 1 129 255l-1.6-4c-3.5-8.6-3.5-8.6-2.4-12l2 4a227.4 227.4 0 0 0 30 47l2.7 3.3c7 8.5 14.3 15.3 23.3 21.7l-3.4-3.2a213.3 213.3 0 0 1-23.2-25.7l-2-2.6c-4.4-6-4.4-6-4.4-9.5 11 11 11 11 11 13l4 2 3.8 3.9C200.3 325 245.7 341 290 342l-3.7-.5A177.1 177.1 0 0 1 215 315c3.7-1.8 7.7 1.3 11.2 2.8A109 109 0 0 0 243 324l-3.6-1.4A190 190 0 0 1 185 293l-3.5-2.8C132 249 132 249 138 237a209.8 209.8 0 0 0 263 55c9.4-5.4 18.4-11.4 27-18l2.4-1.8A166.5 166.5 0 0 0 463 239l3-4Zm-52 84-1 2 3-1-2-1Zm-159 9 4 1Zm4 1 4 1Zm82 0 4 1Zm-78 1 4 1Zm74 0 4 1Z"/>
  <path fill="#1873DC" opacity="1.000000" stroke="none" d="M150 238c4 3 7.8 5.8 11.4 9.2 6.8 5.6 14.2 10.1 21.6 14.8l3 2c77.1 48.3 191.4 38.5 259-21.5 3-2.5 3-2.5 7-4.5-8.8 17.6-30.9 30.8-47 41l-3.2 2c-75.5 45.7-174.9 30.7-238.6-28l-6-5.3c-7.2-6.2-7.2-6.2-7.2-9.7Z"/>
  <path fill="#1873DC" opacity="0" stroke="none" d="M435 243c-29.7 25-67.1 36.7-105 42l-3.8.5c-53.7 6-115.8-6.6-158.2-41.5 4.2 0 7.2 2 11 3.9a234 234 0 0 0 84 24.1l5.3.5c11 .8 21.9.7 32.8.8h3.5c43.8 0 87.2-6.8 125.4-29.7 3-1.6 3-1.6 5-.6ZM419 397c1.8 4 2 6.4 2 11h-12v-3.4c-1.4-5.1-3-4.8-8-4.6-10.3 6.2-7 19.6-5 30 8.1 1.7 8.1 1.7 12.5-4 2.4-6.4 6.4-4.6 12.5-4-.7 11.7-5 18-17 20-12.4-.1-17.7-3.4-22-15-.5-5.4-.5-5.4-.4-11v-5.7c1.5-19.2 23.8-31 37.4-13.3ZM142 390h37v10h-25v10h23v9h-23v12h26v10h-38v-51ZM188 390c11.2-1.8 13.7.7 18.5 10.8 1.1 3.3 1.1 3.3 3.5 4.2l.7-2.4c4.3-11.7 7-14 19.3-12.6a77.2 77.2 0 0 1-10.2 16.8c-4.3 6.4-4.1 9 .2 15.2l2.6 4.2 5.4 8.3c2 3.5 2 3.5 2 6.5-10.7 1.3-13.3-1.2-18-10l-3-5c-3 3.6-3 3.6-4.2 6.8-3.9 9.1-7.2 9.4-16.8 8.2 1.6-6.4 5.5-11.7 9-17.3 6.2-10.5 0-16.2-5.8-25.8-2.2-3.9-2.2-3.9-3.2-7.9ZM239 390h12l1 40 22 1v10h-21.8l-4.7.1h-4.3c-3.2-.1-3.2-.1-4.2-1.1l-.1-11v-3.4a5361.3 5361.3 0 0 1 .1-35.6ZM282 390h37v10h-25v10h23v9h-23v12h25v9l-37 1v-51ZM330 390c10-.5 12.1 1.7 17 10l5.8 8.4L360 419l1-29h11v50c-13.8 0-13.8 0-19.6-9.2l-1.7-2.6c-2.7-4-5.2-8-7.7-12.2l-2-1v25h-12a889.7 889.7 0 0 1 1-50ZM430 390h38v10h-26v10h24v9h-24v11h16.7c9.2-.1 9.2-.1 10.3 1 .2 8.8.2 8.8-1 10l-8.2.1h-25.3c-3.5-.1-3.5-.1-4.5-1.1a381.5 381.5 0 0 1 0-14.4 5361.3 5361.3 0 0 1 0-17.9V390ZM201 453c12.4-.5 12.4-.5 16 0l1 5h-11v6h8c-1 5-1 5-4.6 5.3l-3.4-.3v6h11v5h-17v-27ZM221 453c7 0 7 .3 10 6v2c2.6-2.6 5-5 7-8h6c-2 5-2 5-5.6 9.1-3.5 7-.5 10.4 4.6 15.9l4 2c-10.6.8-10.6.8-14-6-2.4-.3-2.4-.3-3.8 3-2.2 3-2.2 3-7.2 2l2.6-4.7c3-6.7 1.8-9.8-1.2-16.1L221 453ZM249 453h14c0 5 0 5-1 6h-7v6h6v4h-6v6h6c2 1 2 1 2 5h-14v-27ZM286 456c2.5 5 1.1 7.9-2 12 .6 3 .6 3 2 6l2 6c-7.7 0-7.7-1.5-11-8v-2h-2v10h-6v-16.7c-.1-12 6.2-14.5 17-7.3Zm-11 2v8c6.3-.8 6.3-.8 6-7l-6-1ZM316 453h18v5h-6v22h-6v-22h-6v-5ZM343 453v27c-5 0-5 0-6-1l-.1-12.5v-3.6c0-9.9 0-9.9 6.1-9.9ZM373.9 459.8c2.8 8 1.5 14.2-5.6 19-8.8 3.1-14.5 1.2-19.3-6.8-1.2-15.6 13.7-28.7 24.9-12.3ZM355 462c-.8 6.6-.8 8.2 4 13 7.7 0 9.5-1.4 11-9-3.2-8-8.8-11-15-4ZM306 454a674.1 674.1 0 0 0 7.8 18.6c2.2 5.4 2.2 5.4 2.2 7.4-3.4.4-3.4.4-7 0l-1-3.5c-.6-4-.6-4-5-4.4-5.5 1.2-4.7 2.8-6 7.9h-6a316.6 316.6 0 0 1 4.3-14.2l1.5-4.4 1.4-4.3c1.8-3.1 1.8-3.1 7.8-3.1Zm-5 13 4 1c-1.2-5.8-2.4-7.4-4-1ZM381 454c7.4 0 7.3.8 10.9 6.9l2.3 3.8c1.8 3.3 1.8 3.3 1.8 5.3h2l-.5-3c-.5-4.3-.6-8.6-.5-13h6v26c-8.3 0-8-.3-12-7l-2.3-4-1.7-3-1 14h-5v-26Z"/>
</svg>
