<svg version="1.1" id="Layer_1" xmlns="http://www.w3.org/2000/svg" xmlns:xlink="http://www.w3.org/1999/xlink" x="0px" y="0px"
	 width="100%" viewBox="0 0 1024 1024" enable-background="new 0 0 1024 1024" xml:space="preserve">
<path fill="#1873DC" opacity="1.000000" stroke="none" 
	d="
M677.267639,600.802673 
	C658.059204,590.976013 638.217102,584.628113 617.058350,582.255310 
	C616.614685,585.122192 618.092163,585.962952 619.455566,586.300110 
	C632.382629,589.496521 643.506348,596.845398 655.615601,601.919312 
	C666.992981,606.686523 678.533264,610.973755 690.150085,615.097473 
	C697.020264,617.536194 698.996338,620.854248 698.674500,628.469360 
	C696.314453,629.380432 694.586060,627.644226 692.750671,626.817017 
	C658.900757,611.560669 621.334900,619.425720 596.623413,647.074646 
	C586.489197,658.413574 581.974365,672.240234 579.354919,686.857361 
	C578.856689,689.637634 578.680420,692.477600 578.136414,695.247009 
	C577.044434,700.805664 572.443665,702.729004 567.677734,699.617920 
	C557.254333,692.813904 553.174622,682.747681 552.733643,670.709290 
	C552.476501,663.687805 553.537354,656.752869 553.646973,649.765442 
	C553.666565,648.518555 554.130432,647.049377 552.451782,646.012573 
	C552.023499,646.381897 551.381287,646.695312 551.108215,647.206116 
	C542.895386,662.569946 540.432190,678.470947 546.107117,695.358215 
	C549.026978,704.047058 555.114380,709.243042 563.635010,710.547180 
	C575.146851,712.309143 581.283203,718.902527 584.160400,729.506042 
	C585.862671,735.779541 588.247253,741.726929 593.287170,746.808411 
	C588.520203,748.998779 584.315002,748.252625 580.306763,748.102722 
	C569.665344,747.704651 559.081543,746.877991 548.825134,743.462402 
	C533.730103,738.435486 522.982910,728.604919 516.076416,714.494385 
	C512.597107,707.385986 512.800720,699.539795 513.226990,691.951355 
	C515.051941,659.459473 528.740723,631.701782 548.306641,606.455078 
	C550.763550,603.284912 552.669189,599.522217 557.223572,598.126404 
	C559.476196,597.436035 559.362976,593.723999 561.741638,591.981262 
	C586.889343,573.557068 615.017578,562.746948 645.810791,558.680542 
	C661.187805,556.649963 676.395691,557.083313 691.030212,562.974426 
	C700.989380,566.983459 709.380127,573.019897 715.446533,582.081055 
	C721.204468,590.681580 717.617065,603.154419 708.004272,607.347717 
	C702.591675,609.708801 697.135254,610.295288 691.601990,607.590393 
	C686.964355,605.323364 682.267395,603.177612 677.267639,600.802673 
z"/>
<path fill="#1873DC" opacity="1.000000" stroke="none" 
	d="
M289.359070,514.646362 
	C299.458710,528.780701 313.177734,536.298645 329.790833,538.213501 
	C342.365143,539.662842 353.872559,536.259338 363.598236,527.805542 
	C366.705780,525.104492 368.572144,521.684082 369.351318,516.981323 
	C365.894104,518.709045 362.834503,520.235779 359.776825,521.766418 
	C346.052460,528.637024 332.308075,528.792664 318.486694,522.005066 
	C312.634338,519.131042 307.070496,515.809753 301.882996,511.868073 
	C297.168579,508.285889 297.865509,503.167969 303.307831,500.680023 
	C306.124542,499.392365 309.183289,499.498413 312.118530,499.116241 
	C316.332947,498.567505 320.248993,497.322845 323.964111,495.411377 
	C350.672424,481.669556 367.408630,461.024689 369.975281,430.105988 
	C370.708893,421.269012 370.356934,412.479340 370.674927,403.673462 
	C370.746124,401.701202 370.315674,399.675110 371.604126,396.863953 
	C389.943176,404.767456 399.671661,418.773804 402.118256,439.454926 
	C404.440094,436.059357 403.636749,433.807098 403.284943,431.631317 
	C399.707092,409.502686 387.452332,393.564636 368.169556,382.742798 
	C363.739136,380.256409 359.818237,377.262451 356.737183,373.235382 
	C353.309204,368.754761 354.071106,366.604004 359.465851,365.224976 
	C373.232513,361.705841 385.666290,365.225433 396.759857,373.268768 
	C412.653137,384.792053 423.425415,400.610016 429.115540,419.041870 
	C434.003418,434.875122 432.187714,451.406677 427.631165,467.312439 
	C416.830658,505.014160 393.942474,533.817749 361.295166,554.897095 
	C351.930573,560.943481 340.615662,562.400696 329.660492,563.071716 
	C301.823730,564.776733 277.511871,556.774963 257.930511,535.988953 
	C248.523682,526.003479 247.568237,514.192749 248.585617,501.593170 
	C248.822128,498.664246 250.715530,498.574280 252.809372,498.777405 
	C266.567657,500.112000 279.297791,503.866852 289.359070,514.646362 
z"/>
<path fill="#1873DC" opacity="1.000000" stroke="none" 
	d="
M464.105804,689.012451 
	C459.042938,695.006531 454.924866,697.633850 448.681335,698.771973 
	C447.679077,695.208374 446.695496,691.574219 445.634735,687.962646 
	C440.151855,669.295532 432.163605,652.110718 416.809998,639.281128 
	C403.685211,628.313965 388.163391,623.491638 371.529144,621.284058 
	C362.236206,620.050842 352.914124,620.469482 343.605286,620.133911 
	C340.806458,620.033020 337.938385,620.205383 334.940704,618.557983 
	C335.957947,614.071777 338.679443,611.527954 343.143097,610.535767 
	C351.910034,608.587097 360.665405,606.585632 369.415436,604.562134 
	C382.493347,601.537964 392.861389,593.850342 402.994324,585.132507 
	C400.660065,583.783142 398.681183,584.751038 396.668976,585.116394 
	C374.495026,589.142944 354.378052,597.834839 336.347931,611.402832 
	C327.805389,617.831177 313.532928,616.286194 307.396851,607.868896 
	C303.644684,602.721680 303.657043,596.434692 306.201904,590.679321 
	C309.831635,582.470581 315.699829,576.104797 324.446533,573.306763 
	C342.755554,567.449829 361.463837,563.595093 380.798279,563.720459 
	C423.445801,563.996826 457.234100,581.682861 482.465546,615.878723 
	C491.813080,628.547363 499.696594,642.209229 504.494476,657.166077 
	C512.388123,681.773560 507.617950,718.631592 482.841034,737.057007 
	C474.407104,743.328918 465.253815,747.099426 454.744293,747.292114 
	C450.597198,747.368164 446.514771,748.437012 442.296326,747.693787 
	C439.632019,747.224426 438.511169,746.130493 438.767151,743.428101 
	C440.376373,726.439941 446.590698,712.784302 463.596527,705.606384 
	C473.143036,701.576843 476.819153,692.232788 479.222931,682.984009 
	C483.197876,667.689941 479.111389,653.347778 472.478699,639.547913 
	C472.196655,638.960938 471.735901,638.434204 471.267517,637.971375 
	C470.943756,637.651489 470.463379,637.489929 469.209137,636.779907 
	C470.077576,643.704529 471.039124,649.979126 471.617889,656.288940 
	C472.678345,667.850952 470.958984,678.856079 464.105804,689.012451 
z"/>
<path fill="#1873DC" opacity="1.000000" stroke="none" 
	d="
M651.630798,393.476471 
	C654.388672,394.940948 653.277405,397.324738 653.250000,399.281555 
	C653.018494,415.798584 653.390686,432.197632 658.692505,448.128479 
	C665.131287,467.475555 677.759460,481.405273 695.415527,491.077942 
	C702.586670,495.006561 710.056091,498.262512 717.857849,500.756897 
	C719.539429,501.294556 721.506226,501.418579 723.106995,503.790680 
	C715.159241,513.886902 705.966309,522.262207 692.781433,525.323792 
	C679.480774,528.412292 667.597900,524.201294 655.793152,517.599365 
	C658.737793,528.020874 670.396240,536.724487 682.649048,537.651794 
	C705.719727,539.397888 722.202576,528.048767 734.189087,509.742706 
	C738.164001,503.672150 742.578735,500.420685 749.362183,499.327118 
	C755.709900,498.303772 761.756592,495.856537 768.525696,497.325287 
	C773.049377,498.306793 774.144775,500.790802 774.165039,504.653748 
	C774.246338,520.175232 768.060181,532.769531 756.092957,542.469238 
	C737.540039,557.506714 715.851440,561.717163 692.721802,559.773071 
	C660.563416,557.069946 638.307251,538.330322 620.216492,513.525574 
	C609.895691,499.374512 600.119873,484.745667 596.382263,467.223938 
	C587.666260,426.363251 598.820435,391.930481 630.419373,364.370422 
	C635.693237,359.770660 642.232178,359.102325 648.812256,359.827637 
	C655.947510,360.614105 662.689636,362.886414 669.223816,366.785370 
	C666.429199,373.691010 661.099304,377.480072 655.098145,380.436707 
	C647.404419,384.227173 640.286621,388.738861 634.589966,395.255829 
	C626.743103,404.232574 621.917419,414.553375 620.827881,426.699432 
	C628.158325,412.970337 637.160217,400.898956 651.630798,393.476471 
z"/>
<path fill="#1873DC" opacity="1.000000" stroke="none" 
	d="
M217.755341,420.899414 
	C217.669601,402.390717 223.143753,386.155426 235.063721,372.695160 
	C244.834930,361.661285 258.027039,355.890381 272.128204,352.229767 
	C303.149719,344.176819 334.437317,356.634979 349.710327,384.151886 
	C363.157318,408.378845 360.487305,440.418518 342.055695,465.050415 
	C316.795502,498.807983 268.895844,498.087189 240.559692,474.456787 
	C226.717346,462.913239 221.856125,447.049347 218.730362,430.292145 
	C218.183578,427.360870 218.071564,424.348511 217.755341,420.899414 
M298.854156,408.623901 
	C298.815125,407.293213 298.849823,405.955566 298.725189,404.632965 
	C297.860138,395.453796 292.010284,388.773834 284.833466,385.073730 
	C278.438843,381.776947 270.756805,384.640625 264.792053,389.306702 
	C262.599945,391.021545 260.695007,393.225983 259.041962,395.487000 
	C250.179276,407.609619 248.465149,421.295898 253.770508,434.804688 
	C260.957825,453.105469 272.778931,455.450348 286.710907,441.183014 
	C295.054840,432.638275 299.983551,422.097778 298.854156,408.623901 
z"/>
<path fill="#1873DC" opacity="1.000000" stroke="none" 
	d="
M758.068359,352.733673 
	C781.348877,362.945984 796.646729,379.784973 802.667175,404.222473 
	C809.089600,430.291595 797.826904,462.673615 775.397705,477.227966 
	C752.372742,492.168915 727.351562,493.841583 702.268860,481.138916 
	C677.298035,468.492920 663.889404,447.937469 663.397034,420.096069 
	C662.734009,382.600037 685.958862,354.247833 725.363159,348.638245 
	C736.549805,347.045715 747.205627,348.961243 758.068359,352.733673 
M725.636047,424.823364 
	C728.931946,432.378784 734.388916,438.091583 740.999756,442.813385 
	C742.215759,443.681946 743.442688,444.473389 745.039490,444.597443 
	C758.434326,445.638184 770.251038,435.054230 770.681519,421.595734 
	C771.116394,407.998962 765.995972,396.917694 756.506714,387.196594 
	C745.464661,375.884674 729.180786,382.031067 724.269409,394.091583 
	C720.050171,404.452576 721.971680,414.223633 725.636047,424.823364 
z"/>
<path fill="#1873DC" opacity="1.000000" stroke="none" 
	d="
M615.777771,755.268982 
	C596.372498,741.011353 588.877502,721.042664 589.134338,698.471497 
	C589.480408,668.057129 610.560608,637.958740 645.759888,631.780090 
	C678.986511,625.947693 710.886719,641.123352 724.682556,671.841675 
	C734.139404,692.898743 732.540405,714.641174 720.260620,734.572510 
	C708.600830,753.497375 693.274475,767.866577 669.792419,770.732666 
	C649.677795,773.187866 631.924805,767.774841 615.777771,755.268982 
M695.660950,689.901550 
	C689.617920,683.752258 682.545532,682.030457 674.184265,684.304565 
	C663.520081,687.205139 654.330627,692.707947 646.978577,700.663940 
	C639.676636,708.565796 637.714172,718.514343 639.476685,729.106201 
	C639.624695,729.995789 640.239624,731.044189 640.963989,731.564087 
	C647.216187,736.051147 654.186462,738.821777 661.929871,738.379333 
	C682.481384,737.204895 694.479797,720.490356 697.378601,705.116150 
	C698.270020,700.388550 700.864441,694.947937 695.660950,689.901550 
z"/>
<path fill="#1873DC" opacity="1.000000" stroke="none" 
	d="
M316.692535,650.658325 
	C338.204620,634.754150 361.561157,627.450745 387.396240,635.799316 
	C433.595459,650.728516 452.216034,704.123657 421.269989,745.587463 
	C396.112457,779.295471 344.336975,779.179016 315.524475,749.543518 
	C302.709961,736.363098 294.770996,721.380920 295.181396,702.887695 
	C295.622772,683.000488 303.066132,665.664246 316.692535,650.658325 
M355.532990,687.710022 
	C350.731354,686.967712 345.889099,686.982117 341.082428,687.367004 
	C331.353271,688.145996 324.774597,697.383606 326.964355,706.961182 
	C330.689911,723.255920 340.756378,733.581299 356.736847,738.070862 
	C368.200562,741.291443 380.560974,737.494568 386.598022,729.291809 
	C387.919189,727.496704 388.987335,725.668396 388.549957,723.323486 
	C387.693939,718.733765 386.682709,714.218567 384.266693,710.107666 
	C377.800476,699.105347 368.331451,691.956970 355.532990,687.710022 
z"/>
<path fill="#1873DC" opacity="1.000000" stroke="none" 
	d="
M565.261292,281.199829 
	C539.427551,313.789978 486.458588,314.455231 458.390839,280.282654 
	C446.739441,266.097046 443.509003,250.867142 444.183746,234.131104 
	C445.016724,213.470459 453.511963,195.194962 470.384857,183.433655 
	C497.058838,164.840454 533.733459,164.773483 559.591125,190.809692 
	C568.827271,200.109634 576.861206,210.474274 579.029480,223.874634 
	C582.393433,244.664398 578.605286,263.947784 565.261292,281.199829 
M478.496490,219.151733 
	C475.604553,227.747818 480.190125,238.471848 489.042114,243.822235 
	C507.937164,255.242889 527.749939,250.919434 542.460327,236.705444 
	C543.272705,235.920502 544.066589,234.928360 544.415466,233.881485 
	C547.298950,225.228394 543.535706,214.268906 535.932495,209.075714 
	C524.869202,201.519211 512.592163,200.859802 499.973694,203.241608 
	C490.674072,204.996964 483.414185,209.969574 478.496490,219.151733 
z"/>
<path fill="#1873DC" opacity="1.000000" stroke="none" 
	d="
M587.992188,368.976929 
	C598.573669,344.636414 593.474609,322.778107 578.716736,302.425720 
	C571.336243,292.247437 576.272400,277.515869 588.620605,274.371826 
	C592.992676,273.258667 597.191101,275.176788 601.081787,276.980103 
	C613.504333,282.737976 620.518311,293.231415 625.442566,305.474609 
	C635.545776,330.594421 629.212769,352.348938 611.943115,371.910278 
	C608.196045,376.154572 604.522400,380.466614 600.909302,384.825623 
	C586.360413,402.378174 566.659973,409.743164 544.920166,412.174164 
	C506.002533,416.526001 468.550629,409.724152 432.792786,394.448517 
	C416.957703,387.683838 407.166290,374.009125 400.339874,358.554260 
	C392.889862,341.687500 391.451355,324.133423 396.745575,306.368500 
	C400.976440,292.171783 410.608002,282.134338 423.584167,275.708099 
	C435.041779,270.033844 447.327515,276.718292 450.019653,289.208710 
	C451.002075,293.766724 449.216614,297.563538 446.175476,300.557404 
	C424.273834,322.118530 427.634399,351.020569 438.608398,374.712097 
	C439.753174,377.183624 442.056274,378.254547 444.279175,379.371033 
	C458.307617,386.417297 473.377167,389.880005 488.827698,391.551056 
	C511.655975,394.020081 534.352295,392.878387 556.774414,387.655334 
	C564.413208,385.875946 571.761841,383.240936 579.034973,380.312103 
	C584.162415,378.247314 585.499756,373.455170 587.992188,368.976929 
z"/>
<path fill="#1873DC" opacity="1.000000" stroke="none" 
	d="
M484.708130,378.439789 
	C473.529327,377.434753 463.207855,375.146362 454.134766,368.941040 
	C447.864471,364.652588 443.753510,359.304199 444.600037,351.056427 
	C445.210144,345.112488 443.069672,339.229706 444.036194,333.155121 
	C445.428589,324.404266 449.227966,316.694031 453.485992,309.140381 
	C455.810577,305.016571 460.891296,302.885712 465.489868,304.071198 
	C467.559723,304.604767 469.710358,305.356018 471.452209,306.550964 
	C495.191711,322.836639 520.017090,320.850922 545.360352,311.171082 
	C549.552979,309.569702 553.781067,308.043915 558.053955,306.674194 
	C563.082947,305.062012 567.181152,306.750824 570.531616,310.642792 
	C575.524658,316.442688 578.898560,322.923950 579.874817,330.665497 
	C581.355469,342.406921 581.076416,353.872833 576.144470,364.902863 
	C574.752502,368.015778 572.696472,369.822784 569.299255,370.751099 
	C552.507751,375.339417 535.246338,376.619873 518.043091,378.244690 
	C507.109131,379.277374 496.131592,380.056244 484.708130,378.439789 
z"/>
<path fill="#1873DC" opacity="1.000000" stroke="none" 
	d="
M296.981812,596.047974 
	C296.744385,611.269287 304.841034,620.339966 317.470215,626.123779 
	C324.187286,629.200012 324.556091,630.668945 319.534515,636.292603 
	C315.986206,640.266418 310.410980,641.690125 307.406342,646.495361 
	C306.286072,648.286987 304.033386,646.444946 302.562683,645.472107 
	C293.876892,639.726135 288.755463,631.101196 284.397247,622.060852 
	C276.311401,605.288391 271.479584,587.494873 268.902222,569.089966 
	C268.544861,566.538086 268.079132,563.818542 269.693115,560.813965 
	C280.183777,563.834290 290.718353,566.785828 301.193359,569.935547 
	C304.112671,570.813416 302.939026,573.049683 302.127625,574.873901 
	C299.191071,581.475830 297.151428,588.290771 296.981812,596.047974 
z"/>
<path fill="#1873DC" opacity="1.000000" stroke="none" 
	d="
M746.751770,596.586670 
	C743.252808,607.933533 740.230713,619.015564 735.140076,629.378662 
	C732.102478,635.562439 727.332825,640.075073 721.731995,643.845398 
	C720.631165,644.586426 719.565430,645.274292 718.054443,644.877014 
	C709.492737,642.626648 702.599487,630.918823 704.726685,622.321106 
	C705.262146,620.156982 706.890198,619.341187 708.598450,618.862000 
	C718.026428,616.217285 724.269104,610.434448 726.770813,600.858826 
	C729.095703,591.959900 728.332031,583.445984 723.812622,575.285278 
	C721.758972,571.576904 722.827026,567.680786 726.836792,566.227661 
	C735.421021,563.116760 744.170715,560.411865 752.974182,557.980774 
	C756.680725,556.957092 757.585022,559.171021 756.551025,562.663269 
	C753.247620,573.820190 750.100403,585.023499 746.751770,596.586670 
z"/>
<path fill="#1873DC" opacity="1.000000" stroke="none" 
	d="
M364.902954,316.876831 
	C370.538086,312.211334 375.828552,307.659027 383.013428,305.274078 
	C386.422607,316.056671 392.936401,325.498566 392.378754,337.211029 
	C392.239777,340.130615 393.312653,343.101501 393.773560,346.057373 
	C394.715271,352.096619 392.834534,354.577423 386.782959,354.832703 
	C381.459351,355.057281 376.115997,354.821411 370.793152,355.056091 
	C364.814728,355.319733 358.843079,355.809906 352.880524,356.337555 
	C347.310852,356.830414 343.875305,353.430878 340.688660,349.738586 
	C338.470459,347.168457 340.725494,344.943268 342.022675,343.015594 
	C348.465973,333.440765 355.974121,324.763000 364.902954,316.876831 
z"/>
<path fill="#1873DC" opacity="1.000000" stroke="none" 
	d="
M637.565063,306.609863 
	C642.043945,304.538635 645.317627,306.848724 648.539551,308.832245 
	C658.670166,315.069031 667.106323,323.394897 675.899353,331.280426 
	C680.937683,335.798798 686.069885,340.212524 691.093384,344.615112 
	C685.415588,353.732422 677.165283,357.686829 667.676086,355.256317 
	C659.488953,353.159271 651.487671,350.311646 643.460632,347.627106 
	C640.467285,346.626068 637.965393,344.468262 637.855225,341.207947 
	C637.469238,329.785583 637.427917,318.351593 637.565063,306.609863 
z"/>
<path fill="#1873DC" opacity="1.000000" stroke="none" 
	d="
M535.987793,749.395752 
	C537.392334,751.335632 537.744629,753.056274 535.174805,753.266296 
	C520.070740,754.500488 504.978699,755.237244 490.365692,749.891235 
	C489.943665,749.736877 489.640503,749.257507 489.043518,748.711792 
	C490.541504,743.743652 493.902344,739.831787 496.911194,735.757568 
	C499.473358,732.288269 502.375153,729.071960 505.017944,725.659546 
	C508.128815,721.642822 510.630096,721.467590 513.613831,725.567078 
	C520.006104,734.349792 527.285583,742.267822 535.987793,749.395752 
z"/>
</svg>
