<svg xmlns="http://www.w3.org/2000/svg" width="1024" height="1024" viewBox="0 0 512 512"><path d="M328 69c1.8 2.2 3.4 4.5 5 6.8l2.8 3.7c4.6 7.2 2.3 9.4-2.6 15.8l-3.2 4.4c-3 3.3-3 3.3-6 2.3 1-5.2 2.8-9.2 5-14 1.7-4.4 1.7-4.4-2.6-8.5C324 76.3 321.6 69 328 69ZM293 83h29l1 6h-18.6l-4 .1h-3.6C294 89 294 89 293 88v-5ZM278 94.3l3.6 1.1 19 7a129.4 129.4 0 0 0 47.6 11.7l2.8-.1c-2 2-2 2-5 3l2 1.6 2.8 2 2.7 2.2c4.7 4.2 5.8 7.4 5.3 13.5-.1 7 2 10 6.2 15.7l6.1 12.2 4.6 8.8c11 24.1 13.3 45.7-5.1 65.2-3.4 3.6-6.3 7.4-9.3 11.3-5.6 6.1-10 8.1-18.4 8.2h-5.7a22370.1 22370.1 0 0 1-28.2.2l-31.4.4-62.6.7c1.6-4.8 5.5-6.5 9.6-9.4l4.7-3.4 4.7-3.2 4.1-3c4.8-2.5 6.5-2 11.6-.4 18 5.3 34.7 3.8 51.5-4.7 5.3-2.6 10-3.9 15.9-3.9 13.1-2.7 33-16.8 33.6-31.2-.6-13.2-4.3-25.8-9.7-37.8.2-4.2 1-6.2 3-10-1.6-2.4-1.6-2.4-4-4.6a45.8 45.8 0 0 1-13-22.4l-4.8 1.5C317 128 317 128 314 128l1 2 .3 9v4.8c-1 12-26.2 15.5-36.3 17.2-12.3.6-36.9-1.9-46-11v-17c0-3.8-5.4-3.8-8.5-4.6l-4.8-1.4-3.7-1 .4 20.2.2 5.8v5.5l.2 5.2c.1 4.4.1 4.4 1.2 9.3l-1 3 2.4 2.7c4.4 5.6 3.7 9.8-.4 15.3-6 0-6 0-9-4 .1-4 .8-6.6 2.6-10 1.7-3.6 1.2-5.3.4-9l1-2a355 355 0 0 0 .9-24.5c1.6-13.3 1.6-13.3-6.4-21.3l-5.5-.2c14.8-14.8 34.7-10.7 53-7 5.3 1 9.5 1 15 1l-37-6c3.3-3.3 6.2-4.3 10.6-5.8 8.1-2.9 16.3-6.2 24-10 4-1.4 5.4-1.2 9.3 0Zm27 36.7-5 1.7-6.4 2.2-3.3 1.2c-8.2 2.8-15.8 5-24.4 2.7l-3.3-.8-7.7-2.1-4-1.2-3.8-1c-3.1-1-3.1-1-6.1.3 23.2 10.2 23.2 10.2 46.7 6.5 6-2.7 12.2-5 18.3-7.5l-1-2Z"/><path d="M311 167c2.5 5 2.5 9.8 2.8 15.4l.1 3c.4 8.4-.7 12.6-4.9 19.6a210 210 0 0 0-2.3 7.2c-5.8 18-17.6 26.9-36.7 25.8-15.8-4-23-14.9-25.8-30.4-.8-4-.8-4-4.2-4.5-6.5-2.3-5.4-12.2-5-18.1l2-4 .3-5.2c.9-7.1 3.5-15.5 11.7-16 6.2.3 12.2 1.5 18.3 2.5 7.1 1 13.3.8 20.4-.7l3.8-.7c13.2-3.3 13.2-3.3 19.5 6.1ZM327.2 257.9h3.3c19.8 0 19.8 0 22.5 4.1.4 6.3-.2 12.3-1 18.5-1 10.8-1.9 21.7-2.6 32.6l-.4 5.6c-.6 8.7-1.1 17.4-1.3 26.2l-.1 4.2c.5 4.7 2.2 7.7 4.4 11.9l2 8a33577.2 33577.2 0 0 1-47.6 0c-41.8 0-83.6-.3-125.4-1l1-2.7c2.8-7.1 4.6-13 4.4-20.8l-.1-5.4a1368.5 1368.5 0 0 0-3.7-56.2c-1.4-20-1.4-20 .4-21.9 10.7-1.3 21.5-1.2 32.3-1.3a4937 4937 0 0 0 32-.2 20716.7 20716.7 0 0 0 35.4-.3c14.9 0 29.6-1.4 44.5-1.3ZM265 263l-1 2h2l-1-2Zm4 0 1 6-4 1-2-5-3 1c1.3 6.7 2.2 7 9 7 4.8-3.7 4.8-3.7 3-9l-4-1Zm-7.8 27.4c-.7 3.6-.7 3.6 1.8 5.6 6.1.5 12.3.3 18.4.3h14.9c4 0 4 0 6.7-3.3.6-4.9.6-4.9-2-7-2.7-.2-5.5-.2-8.2-.2H277.2c-10.2-1.2-10.2-1.2-16 4.6ZM222 305c-.8 6-.8 6 3 8 5.6-1.2 5.6-1.2 5-8-3-3-5-3-8 0Zm14 0c-.7 5.8-.7 5.8 2 8 4.4.2 8.8.3 13.3.3h4a2431.8 2431.8 0 0 0 33.4 0c6.2.4 6.2.4 11.3-2.3-.4-4.5-.4-4.5-3-8l-13-.3h-4a2350.8 2350.8 0 0 0-29 0h-3.8c-6.2-.4-6.2-.4-11.2 2.3Zm-3 18c-.1 5.9 1.6 6.6 7 8h16.7a2047 2047 0 0 0 27.7-.5h3.7c6.3 0 6.3 0 11.9-2.5.8-6 .8-6-3-8l-13.5-.3h-4.1a2402.4 2402.4 0 0 0-29.9 0h-4c-7-.4-7-.4-12.5 3.3Zm72 29c-.7 6-.7 6 3 9 4 .6 4 .6 8 0l1-4-5-1-1-2h5c2.4-1.9 2.4-1.9 2-5-7-.4-7-.4-13 3Zm14 2v7c5.7.5 5.7.5 10-3 .8-5.5.8-5.5-3-9-6.7-1-6.7-1-7 5Z"/></svg>